<svg xmlns="http://www.w3.org/2000/svg" xmlns:xlink="http://www.w3.org/1999/xlink" width="79.305" height="82.693" viewBox="0 0 79.305 82.693"><defs><clipPath id="a"><rect width="79.305" height="82.692" fill="#e3e230"/></clipPath></defs><g clip-path="url(#a)"><path d="M.873,255.238c-.508-.383-.922-.744-.868-1.453V209.94a1.357,1.357,0,0,1,.739-1.323l25.321-.137a1.538,1.538,0,0,1,1.453.953v21.055H51.326a1.539,1.539,0,0,1,.954,1.453c-.142,7.547.247,15.182-.2,22.677l-.67.62Zm7.392-44h-5.5v19.25h22v-19.25h-5.5v7.3c0,.272-.76.98-1.128.935-2.711-.169-5.752.26-8.421.018-.492-.045-1.453-.387-1.453-.954Zm8.251,0h-5.5v5.5h5.5Zm-8.251,22h-5.5v19.25h22v-19.25h-5.5v7.3c0,.272-.76.98-1.128.935-2.711-.169-5.752.26-8.421.018-.492-.044-1.453-.387-1.453-.954Zm8.251,0h-5.5v5.5h5.5Zm16.5,0h-5.5v19.25h22v-19.25h-5.5v7.3c0,.272-.76.98-1.128.935-2.711-.169-5.752.26-8.421.018-.492-.044-1.453-.387-1.453-.954Zm8.251,0h-5.5v5.5h5.5Z" transform="translate(0 -172.546)" fill="#e3e230"/><path d="M142.432,5.691h14.182c1.923,0,4.727,2.805,4.727,4.727V34.567h-2.751V10.59a3.493,3.493,0,0,0-2.149-2.148h-8.853v2.75h7.306a2.14,2.14,0,0,1,.945.945v23.8H153.09v-22H120.084v19.25h-2.751V12.137a2.14,2.14,0,0,1,.946-.945h7.306V8.441h-8.853a3.355,3.355,0,0,0-2.149,2.148v22.6h-2.75V10.246c0-1.7,2.858-4.555,4.555-4.555h14.354c-.213-1.649-2.362-5.255.422-5.508a80.129,80.129,0,0,1,10.846,0c2.783.253.636,3.853.422,5.508m-2.063-2.75h-7.564c.208,1.209,1.478,3.972.77,4.981a2.322,2.322,0,0,1-.684.519h-4.555v2.75h16.5V8.441h-4.555a2.321,2.321,0,0,1-.684-.519c-.708-1.009.562-3.773.77-4.981" transform="translate(-92.567 0)" fill="#e3e230"/><path d="M221.331,217.5l-30.014,8.925a45.375,45.375,0,0,1-6.948-1.1c-1.565-.613-.763-2.006.084-2.843,1.4-1.383,2.946-2.7,4.465-3.958L226.4,207.365a4.116,4.116,0,0,1,4.287,6c-1.206,2.31-4.572,2.486-6.782,3.277a12.054,12.054,0,0,1,.166,3.357c.006.8.466,1.464-.218,2.26l-11.042,3.486c-.385.042-.186-.038-.252-.25a16.074,16.074,0,0,0-.662-2.243l9.431-3.089Zm2.579-3.78c1.307-.457,5.322-.681,4.378-2.919-.635-1.507-3.416-.1-4.527.192Zm-2.924-1.891-22,6.533.695,2.571,21.4-6.347ZM196.4,219.226l-6.3,1.851-2.113,2.1,2.959.483,5.982-1.769c.452-.315-.554-2.126-.525-2.661" transform="translate(-151.868 -171.592)" fill="#e3e230"/><path d="M333.136,320.371V333.52c0,1.921-2.8,4.727-4.727,4.727h-9.025V335.5h8.853a3.355,3.355,0,0,0,2.149-2.148V320.371Z" transform="translate(-264.362 -265.179)" fill="#e3e230"/><path d="M176.145,96.455a38.949,38.949,0,0,1,5.984-.04,1.3,1.3,0,0,1,1.289,1.289,40.456,40.456,0,0,1-.081,6.114,1.327,1.327,0,0,1-1.209.854,40.5,40.5,0,0,1-6.115-.081,1.328,1.328,0,0,1-.854-1.208,37.761,37.761,0,0,1,0-5.679,1.319,1.319,0,0,1,.986-1.249m4.519,2.713h-2.75v2.75h2.75Z" transform="translate(-144.895 -79.727)" fill="#e3e230"/><path d="M176.145,168.288a38.95,38.95,0,0,1,5.984-.04,1.3,1.3,0,0,1,1.289,1.289,40.456,40.456,0,0,1-.081,6.114,1.327,1.327,0,0,1-1.209.854,40.5,40.5,0,0,1-6.115-.081,1.328,1.328,0,0,1-.854-1.208,37.761,37.761,0,0,1,0-5.679,1.319,1.319,0,0,1,.986-1.249M180.664,171h-2.75v2.75h2.75Z" transform="translate(-144.895 -139.185)" fill="#e3e230"/><rect width="16.503" height="2.75" transform="translate(41.27 22.192)" fill="#e3e230"/><rect width="16.503" height="2.75" transform="translate(41.27 34.567)" fill="#e3e230"/><path d="M327.635,328.353v10.055a2.14,2.14,0,0,1-.945.945h-7.306V336.6h5.5v-8.25Z" transform="translate(-264.362 -271.786)" fill="#e3e230"/><rect width="11.002" height="2.75" transform="translate(46.771 16.692)" fill="#e3e230"/><rect width="11.002" height="2.75" transform="translate(46.771 29.067)" fill="#e3e230"/><rect width="2.75" height="2.75" transform="translate(41.27 16.692)" fill="#e3e230"/><rect width="2.75" height="2.75" transform="translate(41.27 29.067)" fill="#e3e230"/><rect width="2.75" height="2.75" transform="translate(19.266 52.442)" fill="#e3e230"/><rect width="2.75" height="2.75" transform="translate(19.266 74.442)" fill="#e3e230"/><rect width="2.75" height="2.75" transform="translate(44.02 74.442)" fill="#e3e230"/></g></svg>