<svg xmlns="http://www.w3.org/2000/svg" xmlns:xlink="http://www.w3.org/1999/xlink" width="94.535" height="97.619" viewBox="0 0 94.535 97.619"><defs><clipPath id="a"><rect width="94.535" height="97.619" fill="#e3e230"/></clipPath></defs><g clip-path="url(#a)"><path d="M39.4,0c2.787,1.15,4.755,2.709,5.572,5.744,1.971.129,5.348-.578,6.9.856.444.412.658,1.44,1.073,1.787,1.125.944,9.9.1,12.208.374,2.367.28,3.044,1.824,3.247,4,.695,7.429-.546,15.924-.016,23.468,1.378.074,3.342-.4,4.375.773,1.3,1.478,1.232,5.905,2.1,7.349a7.605,7.605,0,0,0,1.926.856c2.3.4,5.725-4.772,8.976-2.9.2.114,2.56,2.523,2.639,2.694,1.669,3.644-4.861,6.948-2.5,10.414.951,1.395,7.6.694,8.335,3.961,1.73,7.7-4.311,5.365-8.029,7.349a4.008,4.008,0,0,0-.888,1.908c-.334,2.424,3.762,5.457,3.214,8.113-.231,1.123-3.163,4.018-4.347,4.09-1.913.117-5.4-3.472-6.9-3.73a11.171,11.171,0,0,0-2.407.877c-.785.657-1.129,5.816-2.278,7.255-.976,1.223-2.818.94-4.21.938-.5,3.895,1.662,9.372-2.667,11.442H3.176a4.6,4.6,0,0,1-2.67-4C1.69,74.86-1.068,54.165.491,35.637c.322-3.822,3.066-1.965,3.066-1.509v60.44H65.331V12.012l-.572-.572H53.129l0,4.578c1.654-.1,7.628-.391,7.628,2.1V77.6c0,1.723-3.051.821-3.051,0V19.066H11.183V86.942H57.7c.261-1.764-.9-4.743,1.354-5.355,2.595-.233,2.628,8.343-.425,8.382l-49-.144a2.492,2.492,0,0,1-1.52-2.674l.009-68.283c-.174-1.206,1.446-2.852,2.487-2.852h5.529c-.2-1.471.546-3.469-.572-4.576H4.129l-.572.572v17.16c0,1.369-2.714,2.352-3.051-.756A107.948,107.948,0,0,1,.5,12.384c.229-1.9,1.25-3.392,3.242-3.622,3.756-.435,8.3.328,12.148.025,1.487-4.03,4.706-2.946,8.219-3.111.406-3.027,2.807-4.552,5.38-5.676ZM50.078,16.016V9.342l-.572-.572h-5.72c-1.951,0-1.451-4.653-4.365-5.55-1.268-.39-9.056-.351-10.219.118-2.975,1.2-1.788,5.432-4.1,5.432h-5.72l-.572.572v6.673Zm18.3,23.261V52.241c13.142-.48,13.142,18.4,0,17.922V83.129c3.668.691,2.222-4.931,4.182-7.067a21.117,21.117,0,0,1,4.112-2.022c1.825-.318,5.35,3.094,7.341,3.586l1.473-1.867c-.961-2.178-3.646-4.759-3.3-7.21.717-5.14,4.857-4.81,8.856-5.968l.2-2.7c-4.334-.827-7.839-.729-8.963-5.742-.66-2.945,3.6-6.186,3.21-7.731-.379-.627-1.062-1.582-1.95-1.361-1.88.468-4.689,3.9-7.153,3.213-.351-.1-2.94-1.231-3.194-1.4-1.6-1.091-1.945-5.694-2.558-7.546Zm0,15.634V66.923c0,1.58,5.391-.456,6.4-3.131,1.9-5.024-1.367-8.776-6.4-8.881" transform="translate(0)" fill="#e3e230"/><path d="M43.977,106.865c1.49-.328,6.833-.453,7.7.911.646,1.02.648,6.953.139,8.068-.872,1.905-8.655,1.749-9.443.092a37.846,37.846,0,0,1-.182-7.429,2.24,2.24,0,0,1,1.789-1.642m5.45,2.967H44.847v4.2l4.22-.168c.722-.5.217-3.088.359-4.03" transform="translate(-26.039 -65.982)" fill="#e3e230"/><path d="M43.977,188.864c1.49-.328,6.833-.453,7.7.911.646,1.02.648,6.953.139,8.068-.872,1.905-8.655,1.748-9.443.092a37.846,37.846,0,0,1-.182-7.429,2.24,2.24,0,0,1,1.789-1.642m5.45,7.165c-.142-.942.363-3.528-.359-4.03l-4.22-.168v4.2Z" transform="translate(-26.039 -116.712)" fill="#e3e230"/><path d="M43.985,147.861c1.467-.338,6.838-.444,7.7.911.646,1.02.649,6.953.139,8.068-.872,1.905-8.654,1.749-9.443.092-.345-.725-.327-6.009-.166-7.031a2.229,2.229,0,0,1,1.774-2.04m5.45,2.967h-4.58v4.2h4.58Z" transform="translate(-26.046 -91.343)" fill="#e3e230"/><path d="M51.563,75.241c-1.014,1.256-7.516,1.259-8.643.288-1.088-.936-1.112-7.812-.422-8.786.953-1.345,7.673-1.3,8.786-.341,1.136.978,1.117,7.8.28,8.838m-2.171-6.374h-4.58v4.2h4.58Z" transform="translate(-26.004 -40.651)" fill="#e3e230"/><path d="M102.032,68c1.9.321.647,3.051,0,3.051H82.2a2.35,2.35,0,0,1-.972-1.355c-.2-.487.693-1.7.972-1.7Z" transform="translate(-50.238 -42.07)" fill="#e3e230"/><path d="M82.25,109h19.829a2.35,2.35,0,0,1,.972,1.355c.2.487-.693,1.7-.972,1.7H82.25a2.35,2.35,0,0,1-.972-1.355Z" transform="translate(-50.285 -67.436)" fill="#e3e230"/><path d="M82.25,150h19.829a2.35,2.35,0,0,1,.972,1.355c.2.487-.693,1.7-.972,1.7H82.25a2.35,2.35,0,0,1-.972-1.355Z" transform="translate(-50.285 -92.801)" fill="#e3e230"/><path d="M82.25,191h19.829a2.35,2.35,0,0,1,.972,1.355c.2.487-.693,1.7-.972,1.7H82.25a2.35,2.35,0,0,1-.972-1.355Z" transform="translate(-50.285 -118.167)" fill="#e3e230"/><path d="M91.355,82.732c1.174.364,1.05,3.051-.381,3.051H82.2a2.348,2.348,0,0,1-.972-1.355c-.2-.487.693-1.7.972-1.7,1.836,0,7.954-.372,9.152,0" transform="translate(-50.238 -51.082)" fill="#e3e230"/><path d="M90.974,123.734a4.755,4.755,0,0,1,.852.487l.132,1.912a2.478,2.478,0,0,1-.983.652H82.2a2.348,2.348,0,0,1-.972-1.355c-.2-.487.693-1.7.972-1.7,2.46,0,6.572-.369,8.77,0" transform="translate(-50.238 -76.449)" fill="#e3e230"/><path d="M90.974,164.734a4.755,4.755,0,0,1,.852.487l.132,1.912a2.478,2.478,0,0,1-.983.652H82.2a2.348,2.348,0,0,1-.972-1.355c-.2-.487.693-1.7.972-1.7,2.46,0,6.572-.369,8.77,0" transform="translate(-50.238 -101.815)" fill="#e3e230"/><path d="M90.974,205.734a4.755,4.755,0,0,1,.852.487l.132,1.912a2.478,2.478,0,0,1-.983.652H82.2a2.348,2.348,0,0,1-.972-1.355c-.2-.487.693-1.7.972-1.7,2.46,0,6.572-.369,8.77,0" transform="translate(-50.238 -127.181)" fill="#e3e230"/><path d="M75.793,26h10.3c.559,0,.831,1.787.386,2.294-.67,1.126-9.98,1.1-10.881.194a1.724,1.724,0,0,1,.2-2.489" transform="translate(-46.497 -16.086)" fill="#e3e230"/></g></svg>