<svg xmlns="http://www.w3.org/2000/svg" xmlns:xlink="http://www.w3.org/1999/xlink" width="119" height="119" viewBox="0 0 119 119"><defs><linearGradient id="a" x1="0.5" x2="0.5" y2="1" gradientUnits="objectBoundingBox"><stop offset="0" stop-color="#ff794c"/><stop offset="1" stop-color="#fbd0c3"/></linearGradient><clipPath id="b"><rect width="64.879" height="64.833" transform="translate(0 0)" fill="#ff794c"/></clipPath></defs><g transform="translate(-373.379 -2973)"><g transform="translate(373.821 2973)"><circle cx="59.5" cy="59.5" r="59.5" transform="translate(-0.442)" fill="url(#a)"/><circle cx="49.5" cy="49.5" r="49.5" transform="translate(9.558 10)" fill="#fff"/></g><g transform="translate(398.24 2999.284)"><g transform="translate(0 -0.001)" clip-path="url(#b)"><path d="M160.491,0h42.515V5.8c-.143.165-.548.675-.743.675h-2.5V29.76a4.339,4.339,0,0,1-1.346,2.028,5.379,5.379,0,0,1-1.286.6H182.491v4.589c3.417,1.114,2.516,6.164-1.01,6.218a3.2,3.2,0,0,1-1.149-6.218V32.392H165.687a7.85,7.85,0,0,1-1.032-.453,3.524,3.524,0,0,1-1.589-2.325,47.528,47.528,0,0,1,0-7.134,1.092,1.092,0,0,1,2.123-.114c.285,2.145-.286,4.915.037,6.982a1.032,1.032,0,0,0,.763.856l30.481.035a1.208,1.208,0,0,0,1.141-.749V6.477H165.215v3.577c0,.941-2.16.941-2.16,0V6.477h-2.5c-.445,0-.714-.754-.749-1.141a29.009,29.009,0,0,1,.015-4.452c.072-.457.342-.616.667-.885m40.356,2.16H161.975v2.16h38.871ZM181.1,38.9A1.1,1.1,0,0,0,181.718,41,1.1,1.1,0,0,0,181.1,38.9" transform="translate(-138.127 0.001)" fill="#ff794c"/><path d="M16.829,26.459H27.694a7.857,7.857,0,0,1,1.032.453,3.225,3.225,0,0,1,0,5.573,7.858,7.858,0,0,1-1.032.453H19.528V51.631c0,.74-1.935,1.246-2.152-.143l.052-20.042a1.042,1.042,0,0,1,.949-.671L27.4,30.75a1.091,1.091,0,0,0-.37-2.137c-6.71.409-14.023-.522-20.662,0-6.41.505-3.426,9.8-4.118,13.981.018,1.3,1.177,1.184,2.166,1.141v-7.9c0-.74,1.935-1.246,2.152.143L6.47,51.8a1.1,1.1,0,0,1-2.029-.2l-.028-5.708A3.6,3.6,0,0,1,.125,43.231c.149-3.488-.311-7.321-.037-10.77a6.6,6.6,0,0,1,7.023-6C2.574,21.187,8.285,13.334,14.7,16.241a6.553,6.553,0,0,1,2.132,10.218m-5.566-8.6c-5.279.767-4.524,9.092,1.163,8.585,5.663-.5,4.788-9.45-1.163-8.585" transform="translate(0.001 -13.502)" fill="#ff794c"/><path d="M17.048,319.286a6.477,6.477,0,0,1,5.566,10.827,7.141,7.141,0,0,1,4.516,3.984,14.579,14.579,0,0,1,.481,5.605c-.1,1.084-1.2,1.6-1.9.806-.524-.587-.176-3.445-.284-4.44a4.362,4.362,0,0,0-4.095-3.868c-1.53-.121-6.771-.191-8.034.208-3.676,1.163-2.708,4.491-2.964,7.294a1.09,1.09,0,1,1-2.172,0,13.724,13.724,0,0,1,.565-5.791,7.161,7.161,0,0,1,4.432-3.8,6.483,6.483,0,0,1,3.887-10.827m.27,2.16c-5.408.661-4.705,9,.905,8.6,5.706-.414,5.014-9.321-.905-8.6" transform="translate(-6.997 -276.058)" fill="#ff794c"/><path d="M176.715,319.286a6.477,6.477,0,0,1,5.566,10.827A7.141,7.141,0,0,1,186.8,334.1a14.579,14.579,0,0,1,.481,5.605c-.1,1.084-1.2,1.6-1.9.806-.524-.587-.176-3.445-.284-4.44A4.362,4.362,0,0,0,181,332.2c-1.53-.121-6.771-.191-8.034.208-3.676,1.163-2.708,4.491-2.964,7.294a1.09,1.09,0,1,1-2.172,0,13.723,13.723,0,0,1,.565-5.791,7.16,7.16,0,0,1,4.432-3.8,6.483,6.483,0,0,1,3.887-10.827m.27,2.16c-5.408.661-4.705,9,.905,8.6,5.706-.414,5.014-9.321-.905-8.6" transform="translate(-145.069 -276.058)" fill="#ff794c"/><path d="M336.382,319.286a6.477,6.477,0,0,1,5.566,10.827,7.141,7.141,0,0,1,4.516,3.984,14.579,14.579,0,0,1,.481,5.605c-.1,1.084-1.2,1.6-1.9.806-.524-.587-.176-3.445-.284-4.44a4.362,4.362,0,0,0-4.095-3.868c-1.53-.121-6.771-.191-8.034.208-3.676,1.163-2.708,4.491-2.964,7.294a1.09,1.09,0,1,1-2.172,0,13.724,13.724,0,0,1,.565-5.791,7.161,7.161,0,0,1,4.432-3.8,6.483,6.483,0,0,1,3.887-10.827m.27,2.16c-5.408.661-4.705,9,.905,8.6,5.706-.414,5.014-9.321-.905-8.6" transform="translate(-283.141 -276.058)" fill="#ff794c"/><path d="M232.882,79.843l21.974-.032a1.084,1.084,0,0,1,0,2.165H233.12a1.089,1.089,0,0,1-.238-2.134" transform="translate(-200.704 -69.016)" fill="#ff794c"/><path d="M232.882,175.644l21.974-.032a1.084,1.084,0,0,1,0,2.165H233.12a1.089,1.089,0,0,1-.238-2.134" transform="translate(-200.704 -151.86)" fill="#ff794c"/><path d="M312.739,127.814l11.3-.021a1.086,1.086,0,0,1-.124,2.154c-3.41.395-7.572-.294-11.063-.011a1.092,1.092,0,0,1-.114-2.123" transform="translate(-269.764 -110.509)" fill="#ff794c"/><path d="M232.905,127.814l6.982-.021a1.089,1.089,0,0,1,0,2.144,47.466,47.466,0,0,1-6.867,0,1.092,1.092,0,0,1-.114-2.123" transform="translate(-200.728 -110.509)" fill="#ff794c"/><path d="M80.514,223.5a1.067,1.067,0,0,1,1.39.983,45.644,45.644,0,0,1-.011,6.743,1.086,1.086,0,0,1-2.155-.124,45.586,45.586,0,0,1,.011-6.743,1.04,1.04,0,0,1,.765-.859" transform="translate(-68.85 -193.236)" fill="#ff794c"/></g></g></g></svg>