<svg xmlns="http://www.w3.org/2000/svg" xmlns:xlink="http://www.w3.org/1999/xlink" width="119" height="119" viewBox="0 0 119 119"><defs><linearGradient id="a" x1="0.5" x2="0.5" y2="1" gradientUnits="objectBoundingBox"><stop offset="0" stop-color="#ff794c"/><stop offset="1" stop-color="#fbd0c3"/></linearGradient><clipPath id="b"><rect width="62.105" height="62.083" fill="#ff794c"/></clipPath></defs><g transform="translate(-688.328 -2973)"><g transform="translate(688.771 2973)"><circle cx="59.5" cy="59.5" r="59.5" transform="translate(-0.442)" fill="url(#a)"/><circle cx="49.5" cy="49.5" r="49.5" transform="translate(9.558 10)" fill="#fff"/></g><g transform="translate(717.026 2997.15)"><g clip-path="url(#b)"><path d="M3.386,62.083A4.151,4.151,0,0,1,0,58.27L.022,30.236a9.339,9.339,0,0,1,5.741-7.653,7.02,7.02,0,1,1,11.254-4.9,8.3,8.3,0,0,1-1.987,4.336H17.6c.43,0,5.973-4.483,6.909-5.11a5.731,5.731,0,0,1,1.521-.795l.143-1.923,2.477-.59,1.381-3.395L28.695,7.952l5.174-5.224c.105-.119.179-.106.318-.067.415.116,1.826,1.325,2.167,1.307l3.258-1.344L40.4,0h7.355c.315.107.558,2.168.734,2.583l3.31,1.38,2.418-1.3,5.242,5.285-1.333,2.254,1.341,3.342,2.64.708V62.083ZM46.324,1.993h-4.5L41.192,4.3A15.926,15.926,0,0,0,36.32,6.314L34.31,5.171,31.2,8.308l1.186,1.88a17,17,0,0,0-2.025,4.941l-2.313.631v.374a3.609,3.609,0,0,1,3,3.818c-.046.592-.534,1.41-.478,1.845.162,1.243,1.283,2.895,1.812,4.04L31.234,27.9,34.265,30.9l1.986-1.2a17.187,17.187,0,0,0,4.941,2.026l.7,2.319,4.429-.013.635-2.306a15.723,15.723,0,0,0,4.872-2.015l2.132,1.143,2.995-3.031-1.2-1.986A17,17,0,0,0,57.789,20.9l2.32-.707-.02-4.418-2.3-.642a15.722,15.722,0,0,0-2.015-4.872l1.143-2.132L53.886,5.13,51.9,6.325A17,17,0,0,0,46.959,4.3ZM9.368,12.038c-6.255.726-5.485,10.471,1.09,9.978,6.527-.489,5.772-10.775-1.09-9.978m1.655,14.989h8.7a7.075,7.075,0,0,0,2.031-.848c2.346-1.447,4.59-3.8,6.9-5.367,1.264-1.879-.8-3.51-2.653-2.528-2.2,1.166-4.625,3.826-6.855,5.165a3.607,3.607,0,0,1-1.675.579c-2.879.249-6.123-.239-9.017,0A7.126,7.126,0,0,0,2,30.59a66.992,66.992,0,0,0,0,8.649,3.161,3.161,0,0,0,2.583,2.8c2.336.307,5.265-.254,7.627.01a2.02,2.02,0,0,1,1.8,1.7c.277,2.036-.295,4.723.041,6.72a2.017,2.017,0,0,0,3.977-.22c.337-3.008-.228-6.66-.031-9.736a3.453,3.453,0,0,0-2.411-2.472h-4.57ZM60.1,22.269l-.636.208-1.34,3.256c.066.516,1.466,2.073,1.294,2.417l-5.2,5.208-2.248-1.273-3.479,1.357c-.2.234-.33,1.953-.554,2.388-.072.14-.11.212-.288.213L40.4,36.025l-.642-1.734-19.6,13.7c-.257.352-.068,1.824-.119,2.386a4.045,4.045,0,0,1-6.946,2.452L8.044,56.349a8.32,8.32,0,0,1-.527,3.731H60.1ZM20.037,45.557,38.189,32.974l-1.919-.913c-.442.138-2.016,1.453-2.332,1.3l-5.147-5.137c-.119-.105-.106-.179-.067-.318.126-.45,1.267-1.7,1.3-2.083L28.861,23.27c-2.085,1.32-3.963,3.315-6.031,4.609A8.732,8.732,0,0,1,19.85,29.03H13.026v7.011h2.692c1.773,0,4.319,2.55,4.319,4.319Zm-18.029-2.5V58.515a4.938,4.938,0,0,0,.318.683,2.027,2.027,0,0,0,3.632-.614l.056-14.531a5.766,5.766,0,0,1-4.007-1m10.016,1H8.018v9.891l4.141-2.84c-.294-2.323-.06-4.707-.134-7.051" fill="#ff794c"/><path d="M218.745,298.943l-13.759,9.383-.966-1.486,13.354-9.463c.144-.1.2-.032.312.058a16.225,16.225,0,0,1,1.059,1.509" transform="translate(-178.425 -260.024)" fill="#ff794c"/><rect width="2.003" height="2.003" transform="translate(56.095 48.061)" fill="#ff794c"/><rect width="2.003" height="2.003" transform="translate(56.095 52.067)" fill="#ff794c"/><rect width="2.003" height="2.003" transform="translate(10.021 56.073)" fill="#ff794c"/><rect width="2.003" height="2.003" transform="translate(14.028 56.073)" fill="#ff794c"/><rect width="2.003" height="2.003" transform="translate(18.034 56.073)" fill="#ff794c"/><rect width="2.003" height="2.003" transform="translate(56.095 56.073)" fill="#ff794c"/><path d="M176.172,384.215c.374-.059.984,1.317,1.29,1.549l-1.565,1.071-1.185-1.563Z" transform="translate(-152.794 -336.013)" fill="#ff794c"/><path d="M266.318,47.714c10.761-.96,17.364,11.689,10.231,19.871a12.032,12.032,0,1,1-10.231-19.871m.124,2a10.029,10.029,0,1,0,8.913,16.174c5.475-6.92-.165-17.027-8.913-16.174" transform="translate(-223.394 -41.683)" fill="#ff794c"/><path d="M309.3,95.593c7.334-.884,9.461,9.727,2.473,11.738-8.331,2.4-10.785-10.736-2.473-11.738m.25,2c-4.968.585-4.407,8.3.839,7.975s4.7-8.627-.839-7.975" transform="translate(-266.002 -83.555)" fill="#ff794c"/></g></g></g></svg>