<svg xmlns="http://www.w3.org/2000/svg" xmlns:xlink="http://www.w3.org/1999/xlink" width="119" height="119" viewBox="0 0 119 119"><defs><linearGradient id="a" x1="0.5" x2="0.5" y2="1" gradientUnits="objectBoundingBox"><stop offset="0" stop-color="#ff794c"/><stop offset="1" stop-color="#fbd0c3"/></linearGradient><clipPath id="b"><rect width="66.944" height="66.94" fill="#ff794c"/></clipPath></defs><g transform="translate(-688.328 -2973)"><g transform="translate(688.771 2973)"><circle cx="59.5" cy="59.5" r="59.5" transform="translate(-0.442)" fill="url(#a)"/><circle cx="49.5" cy="49.5" r="49.5" transform="translate(9.558 10)" fill="#fff"/></g><g transform="translate(715.838 2999.03)"><g clip-path="url(#b)"><path d="M66.944,4.58V46.938a5.613,5.613,0,0,1-2.524,3.817,6.782,6.782,0,0,1-1.986.759H40.928v6.537a7.716,7.716,0,0,1,7.064,6.728c.08,1.02.049,1.664-.92,2.162H19.879c-.969-.5-1-1.141-.92-2.162a7.817,7.817,0,0,1,6.8-6.728V51.514H4.518c-2.114,0-4.624-2.9-4.515-5.029V5.033A5.306,5.306,0,0,1,5.036,0l57,.007a5.388,5.388,0,0,1,4.19,2.608ZM4.814,2.654a2.654,2.654,0,0,0-2.2,2.51V46.355A2.616,2.616,0,0,0,5.036,48.9h56.88a2.616,2.616,0,0,0,2.418-2.55V5.294a2.657,2.657,0,0,0-2.55-2.679Zm33.5,48.86H28.377v6.537h9.936Zm6.929,12.812A5.138,5.138,0,0,0,41.09,60.7c-4.795.205-10-.388-14.745-.039a5.1,5.1,0,0,0-4.635,3.666Z" transform="translate(0)" fill="#ff794c"/><path d="M41.093,39.929,94.8,39.892a1.454,1.454,0,0,1,1.634,1.5l0,35.048a1.286,1.286,0,0,1-.827,1.265l-54.291.108a1.286,1.286,0,0,1-1.265-.827L39.946,41.4a1.416,1.416,0,0,1,1.147-1.467m52.72,2.584H42.565v6.8H57.142a12.26,12.26,0,0,1,2.642-2.326l7.926-.048c.389-.462.55-1.05.947-1.537a4.444,4.444,0,1,1-.472,5.026c-.264-.412-.1-.789-.708-.861-2.066-.246-4.656.176-6.779.034l-2.511,2.326H42.565v7.452H53.939a4.429,4.429,0,1,1,1.527,4.945,6.94,6.94,0,0,1-1.723-2.33H42.565V75.2H93.813V71.535H88.388a4.574,4.574,0,0,1-.712-.334,1.411,1.411,0,0,1-.254-1.678,2.415,2.415,0,0,1,.835-.6h5.556V57.808H85.446c-1.584,5.058-9.1,3.558-8.634-1.771.414-4.726,7.323-5.43,8.634-.844h8.367V49.572H88.257c-.518,0-1.014-.857-.994-1.375.017-.464.547-1.239.994-1.239h5.556ZM71.685,46.464a1.841,1.841,0,0,0,.608,3.623,1.841,1.841,0,1,0-.608-3.623M80.836,54.7a1.843,1.843,0,0,0,.609,3.622c2.508-.265,1.915-4.135-.609-3.622M57.564,59.015a1.834,1.834,0,0,0-.1,3.44,1.834,1.834,0,1,0,.1-3.44" transform="translate(-34.713 -34.664)" fill="#ff794c"/><path d="M245.948,341.479c1.632-.2,2.043,2.39.345,2.587a1.305,1.305,0,0,1-.345-2.587" transform="translate(-212.764 -296.739)" fill="#ff794c"/><path d="M152.614,196.6a4.545,4.545,0,0,1,4.456,2.019,4.444,4.444,0,0,1-5.775,6.338c-1.012.706-2.043,2.543-3.3,2.713-4.045-.316-8.845.463-12.8.011a1.311,1.311,0,0,1-.253-2.606l12.6-.076,1.813-1.854a13.1,13.1,0,0,1-.507-2.06,4.662,4.662,0,0,1,3.761-4.485m.26,2.614a1.849,1.849,0,0,0,.608,3.624,1.849,1.849,0,1,0-.608-3.624" transform="translate(-116.296 -170.806)" fill="#ff794c"/><path d="M92.076,261.542a1.292,1.292,0,0,1,.937,2.379c-1.737.992-2.813-2.019-.937-2.379" transform="translate(-79.159 -227.257)" fill="#ff794c"/><path d="M355.561,261.542a1.292,1.292,0,0,1,.937,2.379c-1.737.992-2.813-2.019-.937-2.379" transform="translate(-308.13 -227.257)" fill="#ff794c"/></g></g></g></svg>