<svg xmlns="http://www.w3.org/2000/svg" xmlns:xlink="http://www.w3.org/1999/xlink" width="119" height="119" viewBox="0 0 119 119"><defs><linearGradient id="a" x1="0.5" x2="0.5" y2="1" gradientUnits="objectBoundingBox"><stop offset="0" stop-color="#ff794c"/><stop offset="1" stop-color="#fbd0c3"/></linearGradient><clipPath id="b"><rect width="63.104" height="63.171" fill="#ff794c"/></clipPath></defs><g transform="translate(-373.379 -2973)"><g transform="translate(373.821 2973)"><circle cx="59.5" cy="59.5" r="59.5" transform="translate(-0.442)" fill="url(#a)"/><circle cx="49.5" cy="49.5" r="49.5" transform="translate(9.558 10)" fill="#fff"/></g><g transform="translate(400.782 2999.188)"><g clip-path="url(#b)"><path d="M0,13.008c.612-1.077,1.66-.662,2.7-.752A16.7,16.7,0,0,1,3.8,9.39C2.926,8.212,1.276,7.755,2.585,6.165A35.71,35.71,0,0,1,6.1,2.653c1.659-1.366,2.036.476,3.308,1.216a11.156,11.156,0,0,1,2.783-1.1c.106-.831-.332-2.388.748-2.639,1.984.029,4.282-.246,6.234-.067,1.986.182.742,2.127,1.285,2.66l2.676,1.148c1.012-.523,1.677-2.417,3.058-1.46A43.794,43.794,0,0,1,30.138,6.35c1.132,1.516-.806,1.958-1.4,3.123l1.208,2.739c.853.2,2.035-.275,2.539.666l.028,6.821c-.276,1.236-2.269.4-2.625.826a10.708,10.708,0,0,0-.37,1.109,12.906,12.906,0,0,0-.779,1.648c.5.79,2.133,1.55,1.716,2.612l-4.385,4.493c-1.214.795-1.966-1.012-2.853-1.583l-2.879,1.274V34.7c.747.035,1.558-.245,1.944.583a17.435,17.435,0,0,1,.157,4.044c-.111,1.558-.674,1.457-2.1,1.412v2.1c.969-.047,1.918-.12,2.084,1.059-.206,4.3.313,8.916.016,13.182a6.394,6.394,0,0,1-3.674,5.57l-1.631.526H15.406a6.44,6.44,0,0,1-5.166-5.125l-.007-14.53c.3-.862,1.221-.68,1.969-.681v-2.1c-.9,0-1.865.235-1.98-.917-.14-1.416.1-3.1.033-4.542.407-.759,1.215-.572,1.947-.58V30.078L9.323,28.8c-.948.631-1.681,2.489-2.977,1.46l-4.2-4.308C1.759,24.72,3.209,24.151,3.8,23.282c-.461-.625-.727-2.169-1.1-2.683-.4-.551-2.369.33-2.7-.935ZM18.364,2.163H14.3c.426,2.626-1.288,2.281-3.041,3.06a13.37,13.37,0,0,1-1.958,1C8.391,6.288,7.465,4.573,7.1,4.637,6.48,5.4,5.2,6.259,4.676,7.027c-.089.13-.153.133-.061.311.282.546,1.426,1.038,1.526,1.821.068.533-.73,1.589-.986,2.164-.774,1.742-.436,3.471-3.06,3.041v4.067c.629.071,1.638-.22,2.1.3a25.265,25.265,0,0,1,.961,2.613c.308.7,1.216,1.778.914,2.474-.215.494-1.24,1.1-1.455,1.512-.092.178-.028.181.061.311.528.768,1.8,1.623,2.428,2.391.327.057,1.231-1.515,2.076-1.534a12.773,12.773,0,0,1,2.409,1.108c.61.254,2.164.585,2.445,1.006a3.879,3.879,0,0,1,.263,2.017h3.882c.39-.447.079-1.189.211-1.761.167-.72,1.681-.881,2.313-1.138a13.961,13.961,0,0,1,2.651-1.18c.885-.027,1.433,1.117,2.1,1.611l2.592-2.709c-.259-.393-1.334-1.138-1.48-1.481-.37-.869.389-1.554.7-2.255a29.567,29.567,0,0,1,1.154-3.037c.525-.566,1.605.04,2.151-.437V14.364a3.877,3.877,0,0,1-2.017-.263c-.425-.283-.749-1.833-1.006-2.445a11.3,11.3,0,0,1-1.108-2.409c.022-.847,1.591-1.749,1.534-2.076-.767-.624-1.622-1.9-2.391-2.428-.13-.089-.133-.153-.311-.061-.415.215-1.018,1.24-1.512,1.455-.7.3-1.774-.607-2.474-.914a21.341,21.341,0,0,1-2.613-.961c-.525-.476-.233-1.46-.3-2.1m0,32.538V32.79l-.185-.185H14.3v2.1Zm1.972,1.972H12.2v2.1h8.134Zm-1.972,6.162v-1.91l-.185-.185H14.3v2.1Zm1.972,1.972H12.2V57.44c0,3.468,5.359,5.137,7.446,1.9a8.577,8.577,0,0,0,.689-1.53Z" transform="translate(0 0)" fill="#ff794c"/><path d="M280.5,424.21c-.355-.282-.756-.362-.742-.922.23-3.3-.3-6.988,0-10.238.056-.619.256-.966.928-1.044,3.287.242,7.006-.311,10.24-.006.747.071.979.441,1.046,1.173.289,3.169-.232,6.775,0,9.992,0,.512-.4.754-.742,1.045Zm7.641-10.23h-6.224l-.185.185v7.95h8.135v-6.9l-3.206,5.483c-1.282,1.391-2.6-1.15-3.571-1.848l1.432-1.408,1.155.917Z" transform="translate(-245.125 -361.039)" fill="#ff794c"/><path d="M395.051,496.675c.088-.66-.207-1.557.185-2.1h14.112v2.1Z" transform="translate(-346.245 -433.504)" fill="#ff794c"/><path d="M280.048,193.42a1.125,1.125,0,0,1-.29-.757c.24-3.261-.291-6.907,0-10.12.062-.674.33-1.037,1.048-1.048,3.259.236,6.907-.293,10.118,0,.591.054.774.174.984.742-.122,3.242.362,6.977.063,10.176-.086.921-.372,1.208-1.294,1.294a71.974,71.974,0,0,1-9.623,0,2.217,2.217,0,0,1-1.007-.288m8.1-9.946h-6.409v8.134h8.135v-6.9l-3.2,5.486c-1.215,1.392-2.678-1.191-3.574-1.85l1.432-1.408,1.152.977Z" transform="translate(-245.133 -159.003)" fill="#ff794c"/><path d="M280.549,296.289c3.192.171,6.817-.328,9.959-.034.922.086,1.208.373,1.294,1.294.3,3.2-.185,6.934-.063,10.176-.209.568-.393.688-.984.742-3.251.3-6.943-.24-10.243,0-.539.041-.86-.42-.92-.929-.375-3.191.291-7.093,0-10.362a1.131,1.131,0,0,1,.96-.889m7.427,2.066h-6.409v8.134H289.7v-6.9l-3.274,5.538c-1.22,1.165-2.612-1.411-3.5-2.025l1.415-1.415,1.169,1.107Z" transform="translate(-244.962 -259.588)" fill="#ff794c"/><path d="M291.682,77.656a1.137,1.137,0,0,1-.634.291c-3.3-.237-6.991.3-10.241,0-.733-.067-.981-.316-1.048-1.048-.293-3.213.238-6.859,0-10.12.021-.731.491-.984,1.173-1.046,3.132-.286,6.693.232,9.872,0a1.141,1.141,0,0,1,1.171,1.171c-.231,3.179.286,6.74,0,9.872a1.585,1.585,0,0,1-.293.879m-3.535-9.821h-6.409v7.95l.185.185h7.95V68.944l-3.208,5.481c-1.259,1.448-2.6-1.161-3.568-1.845l1.415-1.415c.258.153.884,1.121,1.175.927Z" transform="translate(-245.133 -57.538)" fill="#ff794c"/><path d="M409.525,461.645v2.1h-14.3v-1.91l.185-.185Z" transform="translate(-346.421 -404.636)" fill="#ff794c"/><path d="M409.344,264.03v2.1H395.232l-.165-.2c.033-.59-.2-1.422.165-1.891Z" transform="translate(-346.24 -231.425)" fill="#ff794c"/><path d="M409.344,231.1v2.1H395.232l-.165-.2c.033-.59-.2-1.422.165-1.891Z" transform="translate(-346.24 -202.557)" fill="#ff794c"/><rect width="14.297" height="1.972" transform="translate(48.807 42.835)" fill="#ff794c"/><rect width="14.297" height="1.972" transform="translate(48.807 18.431)" fill="#ff794c"/><rect width="14.297" height="1.972" transform="translate(48.807 46.902)" fill="#ff794c"/><rect width="14.297" height="1.972" transform="translate(48.807 14.364)" fill="#ff794c"/><path d="M403.363,198.159v2.1h-7.95l-.185-.185v-1.91Z" transform="translate(-346.422 -173.688)" fill="#ff794c"/><path d="M403.363,428.709v2.1h-8.134v-1.91l.185-.185Z" transform="translate(-346.422 -375.768)" fill="#ff794c"/><rect width="8.134" height="1.972" transform="translate(48.807 38.768)" fill="#ff794c"/><rect width="8.134" height="1.972" transform="translate(48.807 10.297)" fill="#ff794c"/><path d="M58.16,50.242c10.981-1.181,15.911,12.784,6.917,18.625-8.025,5.212-18.133-2.64-15.185-11.734a10.3,10.3,0,0,1,8.268-6.892m.617,1.973c-10.482.98-9.322,17.1,1.563,16.23C70.816,67.6,69.6,51.2,58.777,52.214" transform="translate(-43.272 -43.976)" fill="#ff794c"/><path d="M87.545,83.176c6.526-.883,9.761,7.357,4.581,10.99a6.111,6.111,0,0,1-9.171-7.323,6.223,6.223,0,0,1,4.59-3.668m.619,1.975c-4.838.466-4.739,7.659-.033,8.1,5.955.556,5.867-8.66.033-8.1" transform="translate(-72.292 -72.847)" fill="#ff794c"/></g></g></g></svg>