<svg xmlns="http://www.w3.org/2000/svg" xmlns:xlink="http://www.w3.org/1999/xlink" width="119" height="119" viewBox="0 0 119 119"><defs><linearGradient id="a" x1="0.5" x2="0.5" y2="1" gradientUnits="objectBoundingBox"><stop offset="0" stop-color="#ff794c"/><stop offset="1" stop-color="#fbd0c3"/></linearGradient><clipPath id="b"><rect width="61.491" height="61.98" fill="#ff794c"/></clipPath></defs><g transform="translate(-688.328 -2973)"><g transform="translate(688.771 2973)"><circle cx="59.5" cy="59.5" r="59.5" transform="translate(-0.442)" fill="url(#a)"/><circle cx="49.5" cy="49.5" r="49.5" transform="translate(9.558 10)" fill="#fff"/></g><g transform="translate(716.203 2999.49)"><g clip-path="url(#b)"><path d="M341.288,335.309h-2.479l1.12,1.3a4.191,4.191,0,0,1-1.306,1.306c-.489-.139-2.537-2.607-2.727-2.607h-2.789a.523.523,0,0,0,.118.44c.373.577,2.616,2.349,2.719,2.746.084.32-.966,1.24-1.288,1.4-.383,0-2.3-2.388-2.845-2.737a.523.523,0,0,0-.44-.118v2.789c0,.189,2.468,2.238,2.607,2.727a4.191,4.191,0,0,1-1.306,1.306l-1.3-1.12v2.479H329.39v-2.479l-1.3,1.12a4.19,4.19,0,0,1-1.306-1.306c.139-.489,2.607-2.537,2.607-2.727v-2.789a.523.523,0,0,0-.44.118c-.577.373-2.349,2.616-2.746,2.72-.32.084-1.24-.966-1.4-1.288,0-.383,2.388-2.3,2.737-2.845a.523.523,0,0,0,.118-.44h-2.789c-.189,0-2.238,2.468-2.727,2.607a4.191,4.191,0,0,1-1.306-1.306l1.12-1.3h-2.479v-1.983h2.479l-1.12-1.3a4.192,4.192,0,0,1,1.306-1.306c.489.139,2.537,2.607,2.727,2.607h2.789a.524.524,0,0,0-.118-.44c-.373-.577-2.616-2.349-2.719-2.746-.084-.32.966-1.24,1.288-1.4.383,0,2.3,2.388,2.845,2.737a.523.523,0,0,0,.44.118V328.8c0-.189-2.468-2.238-2.607-2.727a4.19,4.19,0,0,1,1.306-1.306l1.3,1.12V323.41h1.983v2.479l1.3-1.12a4.191,4.191,0,0,1,1.306,1.306c-.139.489-2.607,2.537-2.607,2.727v2.789a.523.523,0,0,0,.44-.118c.577-.373,2.349-2.616,2.746-2.72.32-.084,1.24.966,1.4,1.288,0,.383-2.388,2.3-2.737,2.845a.524.524,0,0,0-.118.44H335.9c.189,0,2.238-2.468,2.727-2.607a4.192,4.192,0,0,1,1.306,1.306l-1.12,1.3h2.479ZM330.1,333.35a1.007,1.007,0,0,0,.563,1.934,1.007,1.007,0,0,0-.563-1.934" transform="translate(-279.797 -283.244)" fill="#ff794c"/><path d="M397.12,12.276v2.355a8.008,8.008,0,0,1-2.862,4.389,6.968,6.968,0,0,1-11.026-6.068c.224-4.569,4.121-9.522,6.886-12.947.16-.04.216.1.306.188a34.365,34.365,0,0,1,5.763,8.986Zm-6.986-9.04c-2.569,3.252-7.359,10.113-3.3,13.813a4.982,4.982,0,0,0,8.31-3.973c-.116-2.648-2.323-6.4-3.87-8.524-.175-.241-.929-1.352-1.138-1.316" transform="translate(-335.629 0.001)" fill="#ff794c"/><path d="M101.759,151.527c-5.342.865-8.322-6.267-3.632-9.147.4-.245,1.743-.675,1.836-.767.144-.14.579-1.447.783-1.82a8.008,8.008,0,0,1,10.354-3.4,12.412,12.412,0,0,1,3.635-3.429,9.943,9.943,0,0,1,14.8,8.764c6.365,1.668,4.508,10.559-2,9.8v7.933h-1.983v-7.933h-5.949v5.95h-1.983v-5.95h-5.949v1.983h-1.983v-1.983h-5.949v5.95h-1.983Zm25.656-7.932a9.343,9.343,0,0,0-.846-5.785,7.943,7.943,0,0,0-14.524,1.446c-.743-.324-1.341-.879-2.108-1.175a5.971,5.971,0,0,0-8.178,5.514c-4.358-.657-5.606,5.138-1.176,5.947h28.133c4.505-.854,3.119-6.7-1.3-5.947" transform="translate(-83.896 -115.327)" fill="#ff794c"/><path d="M3.735,364.285,6.646,368c.251,0,2.022-3.665,2.233-3.716.192-.046.256.165.333.285A34.948,34.948,0,0,0,11.232,368l2.61-3.461.307-.073c.934,2.121,2.4,4.295,3.241,6.427a5.83,5.83,0,0,1-3.037,7.668c-1.683.7-6.978.634-8.951.478a5.92,5.92,0,0,1-5.385-5.274c-.266-3.169,2.74-6.544,3.718-9.48M4.724,376.8a7.577,7.577,0,0,1-.711-1.953c-.27-1.97.7-3.269,1.554-4.9l-1.4-1.817c-.785,1.632-2.326,3.646-2.167,5.512A3.708,3.708,0,0,0,4.724,376.8m8.429,0a3.727,3.727,0,0,0,2.724-3.161c.159-1.867-1.382-3.88-2.167-5.512l-1.4,1.817c.854,1.634,1.824,2.933,1.554,4.9a7.576,7.576,0,0,1-.711,1.953m-4.093-8.551-.254.077c-.89,2.326-4.364,5.42-2.023,7.842a3.015,3.015,0,0,0,5.139-1.906c.079-1.8-2.29-4.277-2.861-6.013" transform="translate(0 -319.037)" fill="#ff794c"/><path d="M198.476,24.214c.092.121-.848,1.747-1.156,1.717-.164-.016-2.413-1.358-2.89-1.577A27.5,27.5,0,0,0,174.51,23.23c-.165-.356-.789-1.69-.452-1.934.091-.066,1.2-.353,1.437-.421a29.016,29.016,0,0,1,19.6,1.579c1.161.53,2.23,1.227,3.386,1.759" transform="translate(-152.355 -17.388)" fill="#ff794c"/><path d="M52.616,51.78c6.753-.932,7.767,9.13,1.442,9.87-6.622.775-7.628-9.017-1.442-9.87m.245,1.982c-3.638.577-2.953,6.3.824,5.905,3.995-.413,3.2-6.543-.824-5.905" transform="translate(-42.467 -45.296)" fill="#ff794c"/><path d="M179.334,452.012a29.164,29.164,0,0,1-22.562-.07c.176-.351.552-1.784.928-1.788.184,0,2.012.77,2.451.9a27.3,27.3,0,0,0,18.364-.884,5.928,5.928,0,0,1,.819,1.842" transform="translate(-137.302 -394.247)" fill="#ff794c"/><path d="M19.366,178.317c-.35,1.636-.856,3.235-1.087,4.9A27.818,27.818,0,0,0,20.1,197.442a5.933,5.933,0,0,1-1.842.819,29.493,29.493,0,0,1-.81-20.33c.268-.37,1.51.343,1.912.386" transform="translate(-14.033 -155.74)" fill="#ff794c"/><path d="M448.186,198.246a5.933,5.933,0,0,1-1.842-.819,27.806,27.806,0,0,0,.72-19.066c.423-.065,1.652-.832,1.931-.445.053.073.305,1.025.369,1.242a29.448,29.448,0,0,1-1.179,19.088" transform="translate(-390.91 -155.725)" fill="#ff794c"/><rect width="1.983" height="13.882" transform="translate(25.795 40.166)" fill="#ff794c"/><path d="M22.351,25.006c.172-.045.228.019.353.1a28.263,28.263,0,0,1,2.4,2.449c.065.248-1,1.338-1.189,1.387s-.228-.019-.353-.1a28.264,28.264,0,0,1-2.4-2.449c-.065-.248,1-1.338,1.189-1.387" transform="translate(-18.531 -21.887)" fill="#ff794c"/><path d="M125.508,25.085c.295-.077,1.463,1.1,1.387,1.387a28.228,28.228,0,0,1-2.4,2.449c-.125.084-.18.149-.353.1s-1.254-1.139-1.189-1.387a23.928,23.928,0,0,1,2.553-2.553" transform="translate(-107.683 -21.967)" fill="#ff794c"/><path d="M23.714,126.883c.288-.075,1.465,1.093,1.387,1.387a28.248,28.248,0,0,1-2.4,2.449c-.125.084-.18.149-.353.1s-1.254-1.139-1.189-1.387a23.893,23.893,0,0,1,2.553-2.553" transform="translate(-18.531 -111.122)" fill="#ff794c"/><path d="M124.146,126.8c.172-.045.228.019.353.1a28.276,28.276,0,0,1,2.4,2.449c.065.248-1,1.338-1.189,1.387s-.228-.019-.353-.1a28.244,28.244,0,0,1-2.4-2.449c-.065-.248,1-1.338,1.189-1.387" transform="translate(-107.684 -111.041)" fill="#ff794c"/><rect width="1.983" height="3.966" transform="translate(9.93 0.503)" fill="#ff794c"/><rect width="3.966" height="1.983" transform="translate(0.015 10.418)" fill="#ff794c"/><rect width="3.966" height="1.983" transform="translate(17.863 10.418)" fill="#ff794c"/><rect width="1.983" height="3.966" transform="translate(9.93 18.351)" fill="#ff794c"/><rect width="1.983" height="3.966" transform="translate(17.863 44.132)" fill="#ff794c"/><rect width="1.983" height="3.966" transform="translate(33.728 46.115)" fill="#ff794c"/></g></g></g></svg>