<svg xmlns="http://www.w3.org/2000/svg" xmlns:xlink="http://www.w3.org/1999/xlink" width="89.298" height="89.283" viewBox="0 0 89.298 89.283"><defs><clipPath id="a"><rect width="89.298" height="89.283" fill="#e3e230"/></clipPath></defs><g clip-path="url(#a)"><path d="M39.925,0a7.773,7.773,0,0,1,5.325,3.828,14.3,14.3,0,0,1,.777,2.012V34.52h5.928c-.664-1.929.443-4.2.361-6.017-.04-.9-.574-1.794-.541-2.778.042-1.245,1.04-2.554,1.055-3.316a42.54,42.54,0,0,0-.855-4.211A15.921,15.921,0,0,1,61.251,1.364,39.73,39.73,0,0,1,65.553,0h9.589c.859.249,1.75.363,2.615.61A15.963,15.963,0,0,1,89.261,17c-.094,1.4-1.1,4.573-.992,5.56.064.61.9,1.714.992,2.812.115,1.386-.492,2.125-.529,3.142-.062,1.7.671,3.777.53,5.921C88.1,52.077,64.649,58.3,54.951,43.465a30.949,30.949,0,0,1-2.736-5.982H46.027V48.99H51.78v2.79H46.027v2.964H57.533v2.789H46.288a1.763,1.763,0,0,0-.262.262V65.64c.755.5,2.8,3.176,3.436,3.364a50.8,50.8,0,0,0,5.346.013c.314-.107.457-1.435.587-1.853,3.687-11.8,17.723-16.5,27.5-8.579A17.269,17.269,0,1,1,54.745,72l-6.329-.035L45.056,68.7c-.179-.04-1.291,1.365-1.643,1.652a7.776,7.776,0,0,1-2.782,1.4c-.318.089-.9.021-1.03.1-.147.091-.984,2.717-1.212,3.234-.14.318-.9,1.421-.9,1.536V86.3h2.79V77.757h2.964V86.3h2.789V75.055c0-.4,2.964-.4,2.964,0V86.3h2.79V80.808c0-.4,2.964-.4,2.964,0V86.3h2.79v2.964H11.507V76.8C5.519,71.589,5.843,63.41,3.271,56.79,2.462,54.709.855,53.595,0,51.606V49.688a5.073,5.073,0,0,1,2.971-3.081L3.009,5.885A7.611,7.611,0,0,1,8.892,0Zm3.313,12.9V6.887a4.442,4.442,0,0,0-3.915-3.93L9.168,2.979c-1.375.107-3.415,2.245-3.415,3.559V12.9A8.928,8.928,0,0,1,9.5,11.5c9.682.521,20.051-.671,29.653,0a8.226,8.226,0,0,1,1.919.347c.77.246,1.414.8,2.17,1.055m42.539,7.671c.554-3.134.947-6.084-.17-9.156a13.1,13.1,0,0,0-8.96-8.126,43.654,43.654,0,0,0-11.965-.065c-7.635,1.693-11.758,10.063-9.237,17.349a4.362,4.362,0,0,1,2.091-.349,7.7,7.7,0,0,1,6.2-8.711c.189-.239-.78-2.561-.287-2.894a8.513,8.513,0,0,1,2.636,0c1.065,7.937,8.456,5.245,13.849,5.852,2.669.3,4,3.329,3.573,5.755a5.1,5.1,0,0,1,2.266.348M43.237,60.5V18.219a4.683,4.683,0,0,0-3.57-3.753l-30.341,0a4.426,4.426,0,0,0-3.58,4.091l0,27.364c3.388.467,5.647,1.863,7.015,5.039.338.785.835,3.038,1.174,3.5.15.206.34.08.538.1V39.489c-2.83-1.637-5.423-4.443-5.752-7.847-.47-4.859-.015-9.687,4.3-12.606A10.1,10.1,0,0,1,28.773,26.58c.313,4.161-.069,8.023-3.144,11.076A4.121,4.121,0,0,1,28.6,40.618C32.385,39.3,35.17,42.5,34.52,46.2a4.717,4.717,0,0,1,4.7,1.311,7.48,7.48,0,0,1,1.05,1.914V60.5ZM63.764,14.512a4.611,4.611,0,0,0-3.252,3.547c.678,6.68-3.038,18.493,6.894,19.4,4.828.442,12.387.283,13.122-6.011a88.416,88.416,0,0,0,.027-12.717c-.094-1.045-.453-1.356-1.49-1.473-3.686-.418-7.573.826-11.074-.956-.641-.326-2.189-1.74-2.386-1.8a5.909,5.909,0,0,0-1.84.006m-40.751,21.4c2.838-1.8,3.222-5.695,2.961-8.8a7.284,7.284,0,0,0-9.808-6.5c-4.442,1.558-7.014,8.65-1.7,10.77V26.239a5.509,5.509,0,0,1,1.042-1.747c2.926-3.269,7.889-.816,7.478,3.644-.07.756-.665,1.977-.658,2.465.006.4.68,1.3.68,1.74Zm34.52-12.9a2.878,2.878,0,0,0,0,5.753ZM83.51,28.767a2.877,2.877,0,0,0,0-5.753Zm-63.649.162a7.853,7.853,0,0,0,.367-1.475,1.516,1.516,0,0,0-2.442-1.211c-.83.595-.449,1.841-.527,2.7.469-.294,2.494.064,2.6-.013m34.882,2.366a27.5,27.5,0,0,0,0,3.661,19.858,19.858,0,0,0,.435,2.005,14.518,14.518,0,0,0,2.616,5.4,13.776,13.776,0,0,1,4.446-3.487,13.067,13.067,0,0,1-3.968-5.008c-.157-.388-.527-2.021-.6-2.1a7.247,7.247,0,0,0-1.538-.292c-.372-.085-1.238-.722-1.387-.182M86.3,31.033l-2.932.729A10.85,10.85,0,0,1,78.8,38.876a11.189,11.189,0,0,1,3.469,2.374c.216.2.9,1.344,1.235,1.114.48-1.084,1.2-2.039,1.657-3.14A20.708,20.708,0,0,0,86.3,35.3ZM20.224,54.744V33.038c0-1.3-2.642-2.181-2.948.016-.493,6.973.6,14.729-.009,21.61a3.128,3.128,0,0,1-5.914,1.192c-1.006-1.972-.909-4.53-2.9-5.993a4.631,4.631,0,0,0-4.78-.422c-1.989,1.2.542,3.07,1.28,4.271,1.9,3.1,2.431,7.965,3.463,11.53,1.016,3.508,2.459,6.953,5.13,9.515l21.245.047c.554.027.8-.63,1.033-1.059,3.241-6.075.945-16.5,1.663-23.276a1.532,1.532,0,0,0-2.341-1.287,3.628,3.628,0,0,0-.627.942v4.62H31.73v-10.2a1.6,1.6,0,0,0-2.337-1.116,3.622,3.622,0,0,0-.627.942V54.744H25.977V41.581c0-.579-.88-1.282-1.482-1.283-.487,0-1.482.669-1.482,1.108V54.744ZM14.453,34.363c-.065-.075-1.617-.46-1.9-.539-.218.2,1.419,1.99,1.658,2.09.428.179.295-1.489.242-1.551m58.074,5.911H68.691a13.056,13.056,0,0,0,1.2,2.856,1.863,1.863,0,0,0,1.211.079c.139-.085,1.124-2.58,1.422-2.935m-6.982.351c-1.214-.1-5.894,3.053-5.726,4.069.118.719,5.384,3.735,6.5,3.613A17.446,17.446,0,0,0,67.4,45.335c.25-1.392-1.53-3.292-1.851-4.711m9.081,7.662c1.2.2,6.433-2.779,6.59-3.593.2-1.03-4.428-4.1-5.626-4.079-.289.992-1.957,3.253-2.013,4.116s1.047,2.566,1.049,3.556m-5.412.7h2.615a17.412,17.412,0,0,0-.852-2.86.65.65,0,0,0-.943.112,14.809,14.809,0,0,0-.821,2.748m2.056,8.6c-11.228.559-17.681,13.581-11.019,22.771a14.473,14.473,0,0,0,23.331.175c7.119-9.769-.248-23.546-12.312-22.946m-28.033,5.7H40.273v5.4c2.445-.41,3.184-3.236,2.964-5.4M34.52,77.757H14.47V86.3H34.52Z" fill="#e3e230"/><rect width="2.79" height="2.79" transform="translate(54.744 48.99)" fill="#e3e230"/><rect width="2.79" height="2.79" transform="translate(37.484 20.224)" fill="#e3e230"/><rect width="2.79" height="2.79" transform="translate(31.73 20.224)" fill="#e3e230"/><path d="M390.767,164.678a5.747,5.747,0,0,1-2.8,4.954,11.329,11.329,0,0,1-1.816.8H379.26v-2.79h6.015a2.924,2.924,0,0,0,2.528-2.964Z" transform="translate(-313.009 -135.911)" fill="#e3e230"/><path d="M362.524,117.954c-1.747-1.91,2.239-3.682,2.556-1.237a1.5,1.5,0,0,1-2.556,1.237" transform="translate(-298.833 -95.344)" fill="#e3e230"/><path d="M429.423,115.68a1.449,1.449,0,0,1,1.227,2.619c-2.111.905-2.983-2.2-1.227-2.619" transform="translate(-353.634 -95.417)" fill="#e3e230"/><path d="M362.172,346.19c8.882-1.022,12.875,7.163,11.293,14.954A10.114,10.114,0,0,1,358.92,368c-8.649-4.51-7.056-20.624,3.252-21.81m.039,11.458h-2.964c-.963-8.22,10.859-7.33,8.273.863a7.286,7.286,0,0,1-7.488,4.888c-.921-.078-1.8-.614-2.7-.609,3.073,4.875,10.643,4.543,12.875-.9a15.849,15.849,0,0,0,.207-8,7.23,7.23,0,0,0-12.7-1.88c-2.522,3.541-1.331,8.981,3.718,8.425,3.018-.333,5.017-5.251,2.362-5.681-1.732-.281-1.692,1.72-1.578,2.892" transform="translate(-291.602 -285.645)" fill="#e3e230"/><path d="M80.342,32.935v2.7a1.754,1.754,0,0,1-.262.262H65.872V32.935Z" transform="translate(-54.365 -27.182)" fill="#e3e230"/><rect width="2.964" height="2.964" transform="translate(34.52 5.753)" fill="#e3e230"/><rect width="2.964" height="2.964" transform="translate(28.767 5.753)" fill="#e3e230"/></g></svg>